<?xml version="1.0" encoding="UTF-8"?>
<svg id="Layer_1" data-name="Layer 1" xmlns="http://www.w3.org/2000/svg" viewBox="0 0 240.51 220.86">
  <rect x="87.45" y="119" width="66.98" height="49.12" rx="18.5" ry="18.5" fill="#1c4024" stroke-width="0"/>
  <rect x="107.49" y="106.6" width="25.53" height="7.66" fill="#1c4024" stroke-width="0"/>
  <g>
    <path d="m119.96,98.94c-8.66-5.55-12.94-15.66-10.72-25.02,1.9-8.05,8.65-15.69,17.87-16.85,6.84-.86,16.46,1.45,18.89,8.17,1.17,3.23.97,8.28-2.55,11.23-3.3,2.77-8.56,2.88-12.77,0" fill="none" stroke="#1c4024" stroke-miterlimit="10" stroke-width="3"/>
    <ellipse cx="99.98" cy="66.76" rx="2.55" ry="5.26" transform="translate(-4.03 127.04) rotate(-63.83)" fill="none" stroke="#1c4024" stroke-miterlimit="10" stroke-width="2"/>
    <ellipse cx="108.18" cy="55.89" rx="2.25" ry="3.35" transform="translate(-13.35 48.29) rotate(-23.74)" fill="none" stroke="#1c4024" stroke-miterlimit="10" stroke-width="2"/>
    <ellipse cx="118.34" cy="50.74" rx=".64" ry="2.1" fill="none" stroke="#1c4024" stroke-miterlimit="10" stroke-width="2"/>
  </g>
  <path d="m100.11,131.47l6.01.23-2.16-3.76c-3.07,4.4-3.68,10.44-4.21,15.61-.6,5.82-.9,11.67-.91,17.51h5c-1.03-10.61-1.88-21.25-.89-31.9h-5c.05,4.9.1,9.8.15,14.69.03,3.26,4.74,3.17,5,0,.34-4.07,1.02-8.09,2.03-12.05l-4.91-.66c-.31,2.77-.62,5.55-.93,8.32-.15,1.34,1.26,2.5,2.5,2.5,1.48,0,2.35-1.15,2.5-2.5.31-2.77.62-5.55.93-8.32s-4.23-3.35-4.91-.66c-1.12,4.39-1.83,8.87-2.21,13.38h5c-.05-4.9-.1-9.8-.15-14.69-.01-1.35-1.14-2.5-2.5-2.5-1.46,0-2.38,1.15-2.5,2.5-.98,10.65-.14,21.29.89,31.9.13,1.34,1.06,2.5,2.5,2.5,1.36,0,2.5-1.14,2.5-2.5.01-5.53.29-11.05.82-16.56.45-4.63.88-10.12,3.63-14.04,1.14-1.64-.41-3.69-2.16-3.76l-6.01-.23c-3.22-.12-3.21,4.88,0,5h0Z" fill="#fff" stroke-width="0"/>
  <rect x="45.19" y="35.36" width="150.13" height="150.13" fill="none" stroke="#1c4024" stroke-miterlimit="10" stroke-width="2"/>
</svg>